<svg width="54" height="54" viewBox="0 0 54 54" fill="none" xmlns="http://www.w3.org/2000/svg">
<path d="M45.1736 2.72649L44.4666 2.01946L43.7595 2.7264L26.7875 19.6945L9.81948 2.72649L9.11237 2.01938L8.40526 2.72649L2.5136 8.61815L1.80649 9.32526L2.5136 10.0324L19.4815 27.0003L2.5136 43.9682L1.80649 44.6753L2.5136 45.3824L8.40526 51.274L9.11237 51.9811L9.81948 51.274L26.7875 34.3061L43.7595 51.2741L44.4666 51.9811L45.1736 51.274L51.0653 45.3824L51.7724 44.6753L51.0653 43.9682L34.0974 27.0003L51.0653 10.0324L51.7724 9.32526L51.0653 8.61815L45.1736 2.72649Z" fill="black" stroke="white" stroke-width="2"/>
</svg>
